<?xml version="1.0" encoding="UTF-8"?><svg id="Layer_1" xmlns="http://www.w3.org/2000/svg" viewBox="0 0 3104.32 473.31"><path fill="currentColor" d="M1854.26,428.17c6.92-11.24,20.59-11.15,25.91-21.36-1.38-2.63-3.84-1.81-5.74-.72-5.19,3-10.54,5.88-15.16,9.63-5.63,4.57-12.01,7.24-18.78,8.96-20.64,5.25-40.24,14.02-61.25,18-.9.17-2,.32-2.45,2.1,7.18,1.27,14.47.88,21.41-.47,16.59-3.24,33.63-5.33,48.37-14.77.55-.35,1.19-.6,1.82-.81,1.39-.46,2.69-.32,3.17,1.27.31,1.03-.3,1.98-1.25,2.44-6.3,3.01-12.44,6.47-18.98,8.83-10.62,3.84-21.45,7.24-33.05,5.7-2.1-.28-3.84.7-5.75,1.2-6.18,1.62-12.57,2.18-18.8.81-5.86-1.29-11.8-1.77-17.63-2.78-12.08-2.1-24.18-4.83-35.77-8.75-7.39-2.5-13.91-7.58-20.79-11.55-2-1.16-3.82-3.32-5.89-3.56-7.79-.91-13.18-5.5-16.34-11.79-4.52-9.02-13.72-14.51-17.14-24.14-3.21-9.06-7.4-17.78-10.72-26.71-2.65-7.14-1.88-15.68-1.98-23.61-.14-10.95.9-21.93-.41-32.85-1-8.33.26-15.82,5.57-22.55,2.25-2.85,4.46-5.82,5.02-9.64,2.14-14.62,10.87-26.25,17.48-38.89,9.93-19,23.13-35.78,36.8-51.91,8.92-10.53,17.52-21.51,27.6-31.28,10-9.69,19.7-19.71,30.44-28.59,16.75-13.86,34.55-25.91,56.29-30.63.51-.11,1.16.45,2.26.91-1.85,5-6.43,6.44-10.61,7.89-12.51,4.33-22.52,12.45-32.07,21.65,4.78-2.51,9.88-4.56,14.29-7.61,13.04-9.04,29.33-10.86,42.52-19.5,1-.66,2.53-.61,3.82-.71,10.52-.85,17.28,3.9,22.46,13.71,2.54,4.82,5.34,8.41-.59,12.39-1.19.8-1.03,2.36-.74,3.7,1.58,7.32-3.63,11.04-8.78,12.59-12.79,3.86-22.69,12.53-33.83,18.99-18.18,10.54-33.66,24.63-48.95,39.12-9.38,8.89-17.21,18.78-25.37,28.53-8.1,9.67-16.38,19.26-23.6,29.58-11.57,16.53-22.54,33.52-28.76,53-4.67,14.61-6.34,29.29-.25,43.99.51,1.23.62,2.76,1.44,3.69,12.78,14.6,24.09,30.66,44.72,36.02,19.71,5.12,39.45,6.75,59.19,2.38,19.06-4.22,36.37-12.66,50.34-26.87.47-.48.94-.95,1.37-1.46,8.08-9.69,6.93-15.22-4.53-20.61-4.83-2.27-9.9-4.09-15.3-4.41-9.97-.58-19.62-2.79-29.31-5.06-6.5-1.52-13.11.77-19.83.08-7.82-.8-14.56-1.69-16.42-10.95-.88-4.4-6.14-1.6-8.06-4.47,3.82-12.02,3.82-12.35,15.37-12.5,5.71-.08,8.03-1.99,7.45-7.61-.31-3.02,1.39-4.55,3.96-6.15,13.78-8.57,28.54-8.23,43.68-5.5,1.94.35,4.17.81,5.93.23,7.53-2.5,14.41-.09,21.44,2.08,3.8,1.17,7.62,2.27,11.66,2.65,4.36.42,8.29,2.01,10.97,6.02,2.86,4.28,7.53,6.48,11.79,9.07,2.11,1.28,5,1.87,5.78-1.19,1.87-7.37,4.79-2.49,6.11-.33,2.41,3.91,5.27,8.31,5.5,12.64.53,10.27,6.99,17.63,10.98,26.17,3.22,6.88,4.7,13.78,2.41,21.14-1.67,5.38-2.34,10.94-4.24,16.35-5.65,16.07-19.42,23.91-31.89,33.07-5.59,4.11-12.25,6.83-17.6,11.19-4.62,3.76-9.43,3.81-16.73,4.51Z"/><path fill="currentColor" d="M2736.54,242.45c-5.92,8.81-16.43,11.01-22.67,19.08,4.23-.29,21.04-6.04,24.07-8.31,4.06-3.05,8.57-5.2,13.29-6.81,7.38-2.52,10.25-1.19,13.69,5.67,2.33,4.63,3.05,9.99,8.1,13.31,2.38,1.56.44,4.27-2.13,5.12-2.18.73-4.55.89-6.74,1.6-1.23.4-2.36,1.39-2.1,2.98.27,1.67,1.62,1.82,3,1.86,1.91.07,4.03-.65,5.85,1.86-2.7,5.34-6.72,9.6-12.99,10.59-4.57.72-8.03,2.93-11.45,5.62-9.95,7.86-18.99,16.52-25.96,27.29-7.38,11.41-12.47,23.85-9.55,37.14,2.27,10.36,8.95,19.33,19.48,23.85,4.56,1.96,9.46,3.25,14.31,4.39,7.85,1.84,14.29.08,21.18-5.19,10.76-8.24,18.86-18.66,27.62-28.57,7.59-8.59,9.4-19.69,11.97-30.35,6.16-25.63,3.85-51.61,2.8-77.51-.31-7.64-1.37-15.23-1.02-22.93.51-11.32-4.01-22.19-3.25-33.66.22-3.3-2.71-6.69-3.47-10.2-2.23-10.21-3.84-20.59-7.36-30.47-3.98-11.16-5.79-23.23-13.39-32.93-.61-.78-1.28-1.65-1.5-2.58-3.15-12.99-11.22-23.88-15.53-36.37-2.16-6.26-2.68-12.73-3.08-20.11,5.26,1.29,5.61,6.29,8.75,8.35,1.64,1.08,3.07,3,5.23,1.67,2.47-1.52,2.07-3.99,1.14-6.22-1.63-3.94-6.26-6.09-6.67-10.75,1.23-1.95,2.91-1.35,4.47-.98,6.82,1.63,6.79,1.65,7.1-5.9.02-.58.6-1.13,1.03-1.88,13.8,7.66,23.04,19.23,28.57,33.74,2.74,7.21,6.96,13.54,10.47,20.29,6.29,12.13,12.16,24.43,16.39,37.46,1.32,4.05,2.19,8.52,8.43,7.78,2.99-.36,4.6,2.23,5.16,5.13,2.83,14.67,9.48,28.44,11.91,42.97,3.28,19.59,8.9,38.89,8.27,59.2-.45,14.22-1.02,28.52.12,42.8.36,4.55,0,9.45-1.31,13.8-3.11,10.36-2,21.14-3.9,31.57-1.07,5.88-2.29,11.63-5.36,17.03-2.77,4.86-4.3,10.43-6.45,15.65-4.31,10.43-8.65,20.83-16.47,29.32-1.29,1.4-1.77,3.54-2.69,5.31-3.1,6.02-6.48,11.35-14,13.07-5.65,1.29-8.64,7.05-13.25,10.28-16.67,11.68-35.23,18.2-55.39,20.06-5.33.49-10.67-1.28-15.49-3.49-16.28-7.47-31.97-15.79-44.67-29.02-6.41-6.68-10.92-14.29-14.24-22.61-3.45-8.63-6.33-17.52-10.86-25.65-5.13-9.21-6.24-19.51-8.8-29.42-.59-2.28-.86-4.72.24-6.87,4.91-9.58,8.3-20.01,15.96-28.07,6.45-6.79,11.1-14.95,16.58-22.48,9.85-13.51,21.06-25.73,35.95-33.98,2.9-1.6,5.81-3.26,10.63-2.55Z"/><path fill="currentColor" d="M3021.54,204.67c5.59,1.88,7.97,5.86,11.69,7.81,4.24,2.22,6.18,1.65,5.74-3.2-.54-5.93,5.42-2.58,6.37-5.65.98-3.18-.76-6.73,1.21-9.69.82-1.23,2.46-.86,3.72-.43,4.56,1.55,8.26,4.45,10.97,8.32,9.89,14.07,19.63,28.24,29.36,42.41,3.43,4.99,5.94,10.5,7.09,16.42,2.41,12.4,4.84,24.82,6.47,37.34.62,4.75-.83,9.79-1.48,14.68-1.17,8.91-2.77,17.78-2.21,26.82.32,5.2-2.67,9.55-3.36,14.52-3.28,23.56-13.27,44.64-26.17,64.11-11.99,18.1-27.52,32.91-48.17,41.3-3.12,1.27-6.05,2.8-8.53,5.07-3.3,3.02-7.24,4.64-11.5,5.71-21.67,5.43-42.21,4.72-60.24-10.65-1.98-1.69-4.55-2.71-6.91-3.92-9.4-4.8-15.18-13.1-21.65-21.28,2.68-.89,4.23,2.61,6.01.49,1.54-1.82.29-3.88-.83-5.5-2.63-3.79-4.96-8.44-8.11-11.09-8.52-7.17-11.03-17.29-14.69-26.58-3.83-9.73-6.87-19.84-6.67-30.9.23-12.79,2.5-25,6.22-37.02,1.86-6.01,4.37-11.91,7.26-17.51,10.41-20.13,21.58-39.82,37.08-56.59,2.7-2.92,6.21-5.79,10.91-5.51,1.13,4.32-2.79,5.41-3.84,8.02-.91,2.25-1.7,4.83.42,6.45,1.97,1.51,3.58-.62,5.03-1.9.75-.66,1.36-1.48,2.11-2.12,5.52-4.74,5.36-4.42,12.34-.59,3.81,2.09,7.44,3.68,9.94,7.72,2.03,3.28,6.09,1.38,9.32,1.13,1.58-.12,3.53-.98,4.21,1.25.55,1.84-.74,3.36-2.18,4.07-4.99,2.47-6.86,5.6-4.06,11.11,1.41,2.78-.81,4.86-3.23,6.47-4.15,2.76-8.25,5.62-12.21,8.64-2.09,1.6-4.37,3.32-5.69,5.51-6.34,10.45-13.75,20.27-18.39,31.72-2.05,5.05-2.82,10.28-2.89,15.62-.27,20.08,3.02,38.93,17.58,54.36,8.76,9.28,12.84,10.73,24.52,6.17,3.08-1.2,6.01-2.82,8.92-4.41,1.46-.8,2.91-2.36,4.48-1.8,8.16,2.88,12.94-2.46,18.43-6.84,7.95-6.35,14.33-13.8,18.82-22.94,3.88-7.9,10.62-14.21,12.82-23.07.32-1.28,1.59-2.54,1.43-3.67-1.43-10.5,4.7-19.8,4.51-30.17-.18-10.3-.99-20.53-1.47-30.8-.8-16.96-10.09-29.83-19.81-42.41-3.07-3.97-5.74-8.08-8.06-12.42-2.02-3.78-4.18-7.85.84-11.43,2.33-1.66,1.67-4.13.5-6.32-1.03-1.92-2.18-3.77-3.97-6.85Z"/><path fill="currentColor" d="M2603.91,8.21c.21,7.81,6.07,12.56,4.89,19.61-.31,1.88,1.19,3.23,3.16,2.63,4.53-1.37,4.87,1.39,5.26,4.69,4.72,39.3,10.64,78.47,13.07,118.02,1.57,25.54,4,51.04,5.2,76.57,1.36,28.86,2.79,57.75,2.47,86.71-.36,32.89-1.06,65.77-2.16,98.63-.56,16.71-5.67,24.89-23.26,30.73-7.36,2.44-14.44-.68-21.57-1.25-3.6-.29-7.76-3.97-8.24-8.98-.44-4.57-2.19-8.89-5.85-11.11-4.46-2.71-4.23-6.32-3.98-10.27,1.54-24.55,3.29-49.1,4.66-73.66.48-8.63.15-17.3.12-25.95-.08-26.57-.92-53.12-2.87-79.61-1.87-25.5-3.23-51.06-4.67-76.55-1.24-21.84-2.23-43.73-5.39-65.27-2.62-17.83-2.56-35.82-5.41-53.56-1.29-8,1.36-15.87,1.48-23.85.01-1,.65-2.18,1.71-1.65,7.77,3.87,7.29-4.31,10.35-7.14,1.78-1.64,1.16-5.75,4.58-5.78,5.33-.04,10.75-2.73,16,.23,2.54,1.43,2.26,3.89,1.77,6.19-.84,3.93-1.37,7.87-.85,11.88.13,1.01.62,1.88,1.78,2.03,1.11.15,1.74-.52,2.45-1.29,2.75-2.98,1.33-7.76,5.31-12.01Z"/><path fill="currentColor" d="M2264.99,292.19c-6.92-1.37-11.9-3.89-17.96-1.55-4.13,1.6-8.48-1.97-11.46-4.75-4.95-4.63-10.28-6.84-16.97-6.82-2.92,0-5.88-1.08-8.77-1.88-4.62-1.28-8.53-1.03-10.99,3.87-.91,1.82-2.51,3.15-4.48,3.79-8.48,2.77-14.44,9.36-21.64,14.05-7.59,4.95-10.78,12.49-12.97,20.57-4.91,18.16-6.13,36.75-5.17,55.45.46,9.05-.52,17.92-1.74,26.83-.65,4.7-3.01,8.66-7.02,10.25-7.27,2.88-14.91,5.76-22.97,2.82-2.4-.88-4.59-.6-6.81.07-4.55,1.36-7.51-.31-7.66-4.92-.19-6.16-3.68-10.78-6.94-15.14-3.18-4.25-4.68-8.35-5.08-13.57-1.88-24.29-1.07-48.25,3.72-72.32,3.16-15.85,8.75-30.62,14.78-45.33,4.5-10.98,12.61-19.43,22.74-25.6,13.11-7.98,27.54-12.84,41.89-18.21,14.57-5.46,28.02-2.32,41.84.18,4.71.85,9.36,3.61,13.38,6.43,6.63,4.64,14.12,7.38,21.35,10.6,12.53,5.59,18.89,16.22,24.34,27.72,2.06,4.34.1,9.37-4.58,12.91-2.36,1.79-5.21,2.91-7.74,4.49-3.4,2.11-5.42,4.91-3.1,10.05Z"/><path fill="currentColor" d="M2456.99,409.24c-6.25-2.52-10.58-5.26-13.76-9.75-1.09-1.53-2.84-1.81-4.32-.44-1.59,1.47-1.11,2.92.49,4.12.53.4,1.21.63,1.67,1.09,2.77,2.81,6.34,5.38,4.12,10.15-1.74,3.75-8.42,7.03-12.87,5.73-6.37-1.86-12.67-4.02-17.37-9.27-7.77-8.67-15.91-17.02-23.55-25.81-7.62-8.76-10.02-9.05-21.32-4.72-15.79,6.05-30.02,15.93-46.98,19.06-6.25,1.16-12.62,5.2-18.39-1.14-7.36.93-14.45-.51-21.63-1.98-3.93-.81-7.69-2.07-11.54-2.96-5.57-1.29-8.67-4.77-10.43-9.69-2.57-7.17-5.32-13.64-14.66-13.99-3.09-.12-5.08-3.12-5.12-6.51-.05-4.31-.51-8.68,1.48-12.77,12.8-26.31,29.42-49.65,52.63-67.92,3.03-2.38,6-4.16,9.97-3.48,1.29.22,2.77.18,3.21,1.78.42,1.49-.58,2.43-1.54,3.39-1.58,1.57-4.31,2.11-4.51,5.65,3.75,1.45,6.76-.37,9.42-2.62,4.26-3.59,9.28-5.58,14.58-5.83,6.57-.31,5.8,7.08,8.86,10.54,4.55,5.15,5.38,11.76,2.11,19.45-3.45,8.11-8,14.26-15.18,18.89-1.95,1.26-3.66,2.89-5.55,4.24-2.03,1.45-3.76,3.36-2.81,5.79,1.15,2.92,3.85,1.71,6.08,1.24,7.58-1.6,14.26-5.5,21.28-8.48,6.71-2.85,12.87-7.06,19.65-9.7,8.47-3.31,16.71-7.55,26.58-6.02,6.71,1.04,12.01,3.72,16.34,8.61,11.43,12.92,24.01,24.78,34.75,38.32.81,1.02,1.65,3.1,2.25,3.02,4.81-.64,9.35-2.74,10.14,5.56.39,4.1,5.27,7.62,5.25,12.57-.03,7.67-.48,15.33.68,23.89Z"/><path fill="currentColor" d="M2008.84,369.83c-.73,22.55-1.05,45.12-5.72,67.38-1.08,5.17-1.64,10.28-4.26,15.01-2.96,5.36-6.26,9.24-13.34,7.28-2.41-.67-5.26.46-7.89.35-7.88-.31-14.91-2.31-19.96-9.18-8.74-11.89-13.94-24.36-10.82-39.68,2.39-11.74,1.04-23.89,1.93-35.78,1.14-15.25-.76-30.44.53-45.63.19-2.28-.09-4.66-.54-6.91-.49-2.44-.64-4.59,1.56-6.29,3.03-2.34,5.17-5.15,5.03-9.24-.04-.99.58-2.65,1.34-2.28,6.43,3.14,7.01-3.19,10.07-5.74,3.18-2.65,7.89-1.16,9.36,3.53,1.47,4.67,3.22,4.21,7.15,3.18,15.23-3.99,17.32-2.84,21.3,12.49,3.18,12.25,3.84,24.92,4.25,37.54.15,4.65.02,9.32.02,13.98Z"/><path fill="currentColor" d="M380.09,238.45c3.96,1.41,6.31-.91,8.66-2.49,2.98-2.01,6.17-2.31,9.52-2.3,1.36,0,3.46.48,3.36,1.52-.94,9.39,7.33,7.2,11.83,9.7.56.31,1,.85,1.57,1.36-1.07,3.85-6.46,2.11-7.37,5.87.49,1.58,2.17,1.21,3.15,1.93,3.84,2.81,4.03,5.64-.18,7.23-4.94,1.87-7.57,4.75-8.77,9.77-1.12,4.68-5.2,6.54-9.3,8.3-9.46,4.07-19.68,6.07-28.66,11.5-19.41,11.73-38.89,23.3-52.64,42.07-2.36,3.22-4.86,6.4-6.75,9.89-2.19,4.06-.75,6.66,3.95,6.57,7.66-.14,15.27-1.19,22.54-3.88,4.7-1.74,9.39-3.06,14.56-2.98,7.01.1,12.67-3.85,18.03-7.76,7.26-5.3,14.19-11.05,21.29-16.57,4.26-3.31,8.79-7.01,10.35-11.94,3.23-10.19,9.24-18.89,13.5-28.46,5.37-12.04,20.72-15.07,30.05-5.52,2.13,2.19,4.65,3.65,7.18,5.28,6.12,3.95,11.51,8.57,16.17,14.49,5.09,6.47,11.01,12.23,15.66,19.2,2.59,3.89,4.89,7.85,7.11,11.92,4.66,8.56,12.08,15.03,17.72,22.86.97,1.34,3.35,3.13,3.06,3.69-3.16,6.26,1.2,13.01-1.37,19.11-1.54,3.65-4.14,6.04-8.67,4.08-2.08-.9-4.63-2.34-6.47-.14-2.26,2.71-.75,5.81.64,8.38,3.5,6.46,2.68,9.05-3.99,11.44-2.96,1.06-6.07,1.21-8.85.22-10.91-3.9-22.49-7.2-28.33-18.56-6.03-11.74-14.97-21.08-24.01-31.04-5.94,3.13-10.64,7.88-14.73,12.83-13.89,16.81-31.55,28.3-50.87,37.62-4.79,2.31-9.17,5.52-14.48,6.69-4.52.99-9.01,2.64-13.23-1.17-2.63-2.37-5.61-1.37-8.4.06-8.1,4.17-16.59,2.41-25.14,2.24-11.93-.24-21.79-5.08-31.41-11.22-2.24-1.43-4.99-2.37-5.95-5.07-2.14-6.04-5.37-4.45-9.07-1.63-15.63,11.89-31.22,23.83-47.63,34.68-17.3,11.44-36.1,19.86-54.94,28.23-3.33,1.48-7.05,2-10.09,4.22-1.36,1-3.06,2.02-4.63,1.28-6.24-2.96-10.82.01-15.37,3.76-2.66,2.2-5.99,2.81-9.33,3.16-10.64,1.11-21.32,1.1-31.92-.06-4.55-.5-9.34-1.71-13.35-3.86-16.02-8.6-30.12-19.59-38.94-35.95-2.8-5.19-4.34-11.09-6.2-16.75-.73-2.22-1.31-4.4-2.6-6.41C3.51,375.76,2.16,352.83.36,330.03c-1.34-16.96,1.47-33.82,1.58-50.77.05-7.73,2.51-15.87,5.67-23.04,3.7-8.4,4.93-17.24,7.29-25.87,5.9-21.61,15.32-41.65,25.12-61.73,8.01-16.42,19.9-29.94,30.29-44.44,10.94-15.27,24.31-29.01,39.71-40.33,1.59-1.17,3.25-2.47,4.34-4.08,8.97-13.27,21.05-22.12,36.08-27.78,8.33-3.14,16-8.14,23.74-12.69,25.49-15.02,53.06-15.98,81.28-12.13,8.31,1.13,12.59,6.27,13.68,14.83.33,2.63.01,5.38.54,7.96.97,4.72,1.15,8.62-4.98,9.76-3.03.56-4.18,3.05-4.3,5.98-.05,1.33.06,2.67-.01,3.99-.31,5.94-4.46,13.23-8.54,13.2-5.47-.04-10.84-.77-14.7-6.26-5.82-8.29-11.92-9.31-21.78-6.38-24.08,7.18-43.81,21.4-62.98,37.01-10.86,8.85-21.11,18.17-30.63,28.41-20.67,22.25-39.43,45.7-52.11,73.7-7.43,16.4-14.52,32.67-18.53,50.41-5.69,25.23-6.94,50.52-4.88,76.15.8,9.95,1.11,19.8,5.75,29.15,2.84,5.72,6.03,11.13,9.73,16.22,10.41,14.32,24.77,19.35,42.01,17.03,4.95-.67,9.9-1.32,14.67-2.96,3.83-1.31,7.87-1.98,11.82-1.01,6.27,1.53,12.3.06,17.41-2.76,11.65-6.44,24.18-11.09,35.5-18.21,13.21-8.31,26.02-17.28,39.95-24.47,7.12-3.67,12.87-9.53,18.41-15.2,8.88-9.09,18.77-16.9,28.74-24.66,2.08-1.62,4.06-3.5,5.7-5.55,18.28-22.81,40.15-41.36,65.05-56.68,12.33-7.59,25.6-12.67,38.89-17.93,1.22-.48,2.56-.84,3.85-.86.89-.02,2.06.4,2.62,1.04,1.04,1.19.31,2.39-.61,3.46-1.66,1.93-5.13,1.97-5.65,5.92Z"/><path fill="currentColor" d="M673.01,254.23c-2.39.46-4.07.56-5.59,1.12-3.35,1.25-3.9,3.89-1.68,6.27,5.7,6.11,10.6,12.82,15.65,19.43,2.81,3.67,5.74,2.58,8.39-.18,9.68-10.08,20.26-19.24,29.7-29.6,12.13-13.32,26.11-24.69,41.28-34.37,4.59-2.92,10.5-4.15,15.99-5.16,5.1-.94,10.4.86,13.5,4.95,6.3,8.3,14.17,15,21.36,22.39,3.2,3.29,4.06,7.06,5.01,11.45,3.72,17.19,4.02,35.07,10.47,51.7.82,2.13,1.76,4.65,1.36,6.74-2.59,13.7,1.64,27.16,1.16,40.81-.29,8.22.9,16.58,2.28,24.74,1.12,6.67,1.22,13.23.67,19.88-.39,4.69,1.36,10.32-7.01,10.28-3.37-.02-2.84,4.61-3.05,7.54-.46,6.47-.69,6.83-5.66,3.89-3.13-1.85-5.24-2.11-7.87.45-3.36,3.27-6.03,2.22-9.24-1.01-9.67-9.72-16.1-21.04-16.52-34.8-.71-23.67-5.32-46.96-6.37-70.57-.4-9.08-3.14-17.69-5.12-26.44-1.27-5.6-3.45-6.4-7.29-2.52-9.35,9.46-19.74,17.82-28.62,27.79-11.54,12.96-24.92,23.99-37.94,35.39-4.98,4.36-10.93,6.32-17.17,7.51-5.85,1.11-11.8,1.43-17.62,3.12-4.68,1.36-8.27.14-11.03-5.45-4.45-9.03-7.52-18.4-10.43-27.91-1.94-6.34-2.21-6.35-8.25-3.93-3.2,1.28-5.69,3.23-7.94,5.8-9.19,10.51-18.47,20.93-27.76,31.34-8.84,9.91-19.38,18.29-26.63,29.64-1.3,2.03-3.86,2.49-6.04,3.3-3,1.13-5.18.87-5.69-2.97-.73-5.48-3.7-5.93-8.6-4.47-7.53,2.25-10.6.06-12.31-8.02-.72-3.43-1.7-6.76-4.85-8.31-6.11-3.01-6.32-8.62-5.69-13.74,3.21-26.11,2.66-52.52,6.47-78.59,1.34-9.2,2.03-18.68-2.64-27.39-2.17-4.05-.24-8.68-1.97-12.53-1.62-3.6.3-4.22,2.8-4.51,5.55-.66,9.52-3.1,13.23-7.62,6.93-8.47,16.1-6.7,20.04,3.67,1.97,5.18,3.37,9.62,9.86,10.87,3.25.63,5,4.53,4.81,8.05-.32,5.81,1.21,11.21,2.81,16.63,1.68,5.67-.4,11.26-.17,16.88.09,2.22-1.12,5.03,1.34,6.41,2.74,1.54,3.9-1.38,5.61-2.78,10.82-8.84,21.59-17.74,32.58-26.36,5.49-4.31,12.56-5.7,18.67-9.08,4.03-2.23,9.09.56,12.7,3.86,3.2,2.92,6.34,4.56,10.72,2.19,3.65-1.97,6.31-.37,8.31,4.22Z"/><path fill="currentColor" d="M1381.07,237.67c1.97,2.57,2.29,5.63,1.86,8.59-1.78,12.27.39,24.48.19,36.67-.14,8.98-1.05,18.4-8.98,25.53-4.03,3.62-6.13,9.4-9.01,14.26-1.69,2.86-2.97,5.92-6.12,7.69-1.38.78-2.95,2.05-3.45,3.44-4.03,11.34-12.9,17.95-22.66,23.77-1.13.67-2.26,1.53-3.06,2.55-9.35,11.89-22.6,16.92-36.52,20.62-3.9,1.04-7.59,2.43-11.23,4.06-13.62,6.1-28.03,5.49-42.22,3.88-11.12-1.26-14.47-11.55-18.94-19.92-1.54-2.89-2.09-6.31-3.19-9.45-.66-1.87-1.56-3.62-3.98-3.82-3.08,3.93,2.49,7.57.22,11.35-3.36.9-5.37-1.4-6.43-3.56-3.13-6.36-8.27-11.25-11.84-17.26-1.72-2.89-3.57-5.77-3.91-9.11-.62-6.09-2.82-11.64-5.4-17.06-1.37-2.88-2.67-6.3-.23-8.39,6.44-5.49,5.64-13.26,6.45-20.09,1.01-8.57,3.13-16.99,3.61-25.59.46-8.27,5.03-15.05,7.6-22.5,3.85-11.15,6.78-23.08,15.32-32,8.91-9.3,16.79-19.92,29.61-24.51,2.95-1.06,4.53-4.46,7.25-5.09,4.01-.93,8.94-8.84,12.39.74,3.84-1.45,7.55,1.03,11.29.44,2.47-.39,5.09-2.8,6.97.62,1.61,2.93.24,5.89-.91,8.64-.47,1.14-1.59,2.08-2.58,2.91-1.91,1.6-5.32,2.82-3.3,5.92,1.77,2.71,4.74,1.38,7.27.27.5-.22,1.22.09,1.9.15,1.69,2.53-.22,4.36-1.33,6.29-.99,1.73-2.71,3.53-1.95,5.46,2.63,6.7-1.83,10.61-5.39,14.93-7.98,9.68-16.8,18.79-23.75,29.15-12.43,18.51-17.08,38.9-9.41,60.68,4.5,12.76,11.34,16.23,24.01,12.13,16.19-5.23,32.27-11.18,43.62-24.81,8.1-9.73,14.94-20.36,17.74-33.01,1.41-6.38,1.2-12.57-3.56-17.82-5.9-6.5-9.77-14.62-17.62-19.65-6.57-4.21-10.76-11.1-11.53-18.92-.35-3.53-4.44-5.07-3.29-9.25,5.44-.08,8.93,5.7,15.24,5.04-3.3-5.03-1.95-11.35-9.13-15.12,7.17-2.98,12.09-3.37,16.71-.07,3.52,2.51,5.47,2.46,7.67-1.79,3.14-6.06,4.48-6.4,9.78-2.57,12.1,8.75,24.69,17.07,31.85,30.98,1.19,2.32,2.58,4.86,5.21,5.89,4.21,1.64,5.78,5.27,7.36,8.96-1.64-.67-3.41-2.53-4.87-.11-.7,1.16.32,2.68,1.49,3.11,3.2,1.18,2.49-1.78,3.15-3.27Z"/><path fill="currentColor" d="M1157.55,320.01c-1.37,5.87-2,10.35-.58,15.39,1.18,4.18-1.77,8.8-5.02,12.45-4.71,5.29-10.37,9.34-16.25,13.09-4.07,2.6-7.08,5.37-8.06,10.64-.99,5.36-13.66,14.56-18.89,14.74-.89.03-2-.36-2.69-.94-4.57-3.89-9.09-7.55-15.81-5.55-.74.22-2.37-1.2-3-2.22-2.08-3.39-4.62-6.73-5.67-10.46-4.84-17.19-13.33-33.52-12.88-52,.28-11.29-1.85-22.42-1.54-33.78.53-19.69,1.67-39.21,6.94-58.27,1.79-6.46,1.53-13.25,3.3-19.61,4.62-16.56,6.79-33.66,13.41-49.87,4.18-10.24,6.53-21.58,10.06-32.26,4.87-14.73,10.1-29.44,21.29-41.23,4.17-4.4,6.15-10.83,9.33-16.21,8.79-14.89,19.41-28.15,34.47-37.2,2.11-1.27,3.7-2.68,4.95-4.68.97-1.55,2.71-2.85,4.11-1.65,5.02,4.32,6.9-.74,9.55-2.99,6.56-5.57,8.09-5.31,11.69,2.84.56,1.26,1.28,2.1,2.18,3.08,6.46,6.99,7.01,17.61,1.34,25.23-3.1,4.17-7.22,7.48-4.35,13.99,1.29,2.93-2.58,5.82-4.83,8.17-8.08,8.41-14.9,17.73-21.42,27.39-3.68,5.44-4.7,11.66-7.56,17.25-8.2,16.02-15.52,32.53-20.45,49.75-4.83,16.88-10.05,33.72-13.4,51.04-2.76,14.3-6,28.51-9.04,42.75-1.04,4.87-2.38,9.71-1.25,14.78.29,1.29.89,2.92.38,3.9-5.83,11.32-.61,22.95-.99,34.4-.28,8.38,1.11,8.78,9.5,7.64,3.29-.45,5.37-2.41,7.66-4.29,2.5-2.05,5.21-2.09,6.98.49,4,5.84,9.53,6.28,16.53,4.19Z"/><path fill="currentColor" d="M948.46,221.05c1.62-4.69,2.95-8.35,4.15-12.05,1.64-5.06,5.5-7.59,10.34-8.22,4.3-.56,6.69,2.16,9.46,5.66,9.91,12.55,11.26,26.14,8.53,41.34-2.37,13.15-5.68,26.24-10.25,38.43-8.68,23.14-12.8,47.28-19.33,70.86-2.04,7.36-4.4,14.63-6.25,22.07-1.47,5.91-6.66,9.77-9.73,14.88-1.51,2.52-11.28,1.99-13.22-.07-1.97-2.09-.55-4.37-.25-6.62.43-3.27-.77-6.01-4.26-3.84-6.04,3.76-8.54-.18-11.05-4.23-2.13-3.45-3.06-7.37-2.84-11.48.94-17.27,2.11-34.41,8.46-50.91,2.92-7.59,3.8-16.02,5.13-24.14,1.56-9.58,3.56-18.93,7.98-27.7,3.64-7.22,4.43-15.32,5.64-23.13,1.6-10.29,5.22-19.77,9.28-29.18.55-1.27,1.62-2.29,3.03-2.26,2.26.04,2.41,1.85,2.43,3.56.02,1.97-.17,3.99,2.73,7.03Z"/></svg>